<svg xmlns="http://www.w3.org/2000/svg" xmlns:xlink="http://www.w3.org/1999/xlink" width="500" zoomAndPan="magnify" viewBox="0 0 375 374.999991" height="500" preserveAspectRatio="xMidYMid meet" version="1.0"><defs><g/><clipPath id="a9685225da"><path d="M 78 183 L 129.941406 183 L 129.941406 192 L 78 192 Z M 78 183 " clip-rule="nonzero"/></clipPath><clipPath id="da0b869df1"><path d="M 88 163 L 129.941406 163 L 129.941406 172 L 88 172 Z M 88 163 " clip-rule="nonzero"/></clipPath><clipPath id="bfcc00c6a8"><path d="M 109 173 L 129.941406 173 L 129.941406 182 L 109 182 Z M 109 173 " clip-rule="nonzero"/></clipPath><clipPath id="3d74bfaa9b"><path d="M 65.441406 183 L 75 183 L 75 192 L 65.441406 192 Z M 65.441406 183 " clip-rule="nonzero"/></clipPath><clipPath id="91edf877d6"><path d="M 90 193 L 129.941406 193 L 129.941406 202 L 90 202 Z M 90 193 " clip-rule="nonzero"/></clipPath><clipPath id="8792024c91"><path d="M 94 202 L 129.941406 202 L 129.941406 211 L 94 211 Z M 94 202 " clip-rule="nonzero"/></clipPath></defs><rect x="-37.5" width="450" fill="#ffffff" y="-37.499999" height="449.999989" fill-opacity="1"/><rect x="-37.5" width="450" fill="#000000" y="-37.499999" height="449.999989" fill-opacity="1"/><g clip-path="url(#a9685225da)"><path fill="#0091ff" d="M 152.207031 183.402344 L 110.691406 183.402344 L 108.917969 186.46875 L 104.816406 186.46875 L 103.042969 183.402344 C 101.511719 183.402344 82.359375 183.402344 80.832031 183.402344 L 78.539062 187.375 L 80.832031 191.347656 C 82.359375 191.347656 101.511719 191.347656 103.042969 191.347656 L 104.816406 188.28125 L 108.917969 188.28125 L 110.691406 191.347656 L 152.207031 191.347656 C 152.664062 188.722656 152.664062 186.035156 152.207031 183.402344 Z M 152.207031 183.402344 " fill-opacity="1" fill-rule="nonzero"/></g><g clip-path="url(#da0b869df1)"><path fill="#0091ff" d="M 95.210938 171.820312 L 96.984375 168.757812 L 101.085938 168.757812 L 102.859375 171.820312 L 146.628906 171.820312 C 138.402344 162.546875 129.175781 163.871094 118.050781 163.871094 L 102.859375 163.871094 L 101.085938 166.9375 L 96.984375 166.9375 L 95.210938 163.871094 L 90.625 163.871094 L 88.332031 167.84375 L 90.625 171.8125 L 95.210938 171.8125 Z M 95.210938 171.820312 " fill-opacity="1" fill-rule="nonzero"/></g><g clip-path="url(#bfcc00c6a8)"><path fill="#0091ff" d="M 122.628906 176.707031 L 118.523438 176.707031 L 116.75 173.640625 L 112.164062 173.640625 L 109.871094 177.613281 L 112.164062 181.585938 L 116.75 181.585938 L 118.523438 178.519531 L 122.628906 178.519531 L 124.402344 181.585938 L 151.820312 181.585938 C 151.082031 178.683594 149.796875 175.996094 148.085938 173.632812 L 124.402344 173.632812 Z M 122.628906 176.707031 " fill-opacity="1" fill-rule="nonzero"/></g><g clip-path="url(#3d74bfaa9b)"><path fill="#0091ff" d="M 67.734375 183.402344 L 65.441406 187.375 L 67.734375 191.355469 L 72.328125 191.355469 L 74.621094 187.375 L 72.328125 183.402344 Z M 67.734375 183.402344 " fill-opacity="1" fill-rule="nonzero"/></g><path fill="#0091ff" d="M 96.777344 177.613281 L 99.070312 181.585938 L 103.664062 181.585938 L 105.957031 177.613281 L 103.664062 173.640625 L 99.070312 173.640625 Z M 96.777344 177.613281 " fill-opacity="1" fill-rule="nonzero"/><path fill="#0091ff" d="M 83.40625 202.929688 L 81.105469 206.90625 L 83.40625 210.878906 L 87.992188 210.878906 L 90.285156 206.90625 L 87.992188 202.929688 Z M 83.40625 202.929688 " fill-opacity="1" fill-rule="nonzero"/><g clip-path="url(#91edf877d6)"><path fill="#0091ff" d="M 103.042969 196.230469 L 98.9375 196.230469 L 97.164062 193.167969 L 92.578125 193.167969 L 90.285156 197.136719 L 92.578125 201.109375 L 97.164062 201.109375 L 98.9375 198.042969 L 103.042969 198.042969 L 104.816406 201.109375 L 148.078125 201.109375 C 149.789062 198.746094 151.074219 196.058594 151.8125 193.160156 C 137.449219 193.160156 119.171875 193.160156 104.808594 193.160156 Z M 103.042969 196.230469 " fill-opacity="1" fill-rule="nonzero"/></g><g clip-path="url(#8792024c91)"><path fill="#0091ff" d="M 114.796875 206 L 110.691406 206 L 108.917969 202.9375 C 104.78125 202.9375 100.636719 202.9375 96.496094 202.9375 L 94.203125 206.90625 L 96.496094 210.878906 C 100.636719 210.878906 104.773438 210.878906 108.917969 210.878906 L 110.691406 207.8125 L 114.796875 207.8125 L 116.570312 210.878906 C 128.316406 210.878906 138.191406 212.445312 146.628906 202.929688 L 116.570312 202.929688 Z M 114.796875 206 " fill-opacity="1" fill-rule="nonzero"/></g><g fill="#ffffff" fill-opacity="1"><g transform="translate(158.133858, 189.59179)"><g><path d="M 6.734375 -3.921875 L 16.96875 -3.921875 L 16.96875 0 L 1.6875 0 L 1.6875 -19.625 L 6.734375 -19.625 Z M 6.734375 -3.921875 "/></g></g></g><g fill="#ffffff" fill-opacity="1"><g transform="translate(180.995361, 189.59179)"><g><path d="M 14.296875 -19.625 L 19.359375 -19.625 L 19.359375 -5.328125 C 19.359375 -3.367188 18.910156 -1.941406 18.015625 -1.046875 C 17.128906 -0.160156 15.707031 0.28125 13.75 0.28125 L 7.296875 0.28125 C 5.328125 0.28125 3.898438 -0.160156 3.015625 -1.046875 C 2.128906 -1.941406 1.6875 -3.367188 1.6875 -5.328125 L 1.6875 -19.625 L 6.734375 -19.625 L 6.734375 -5.328125 C 6.734375 -4.203125 7.289062 -3.640625 8.40625 -3.640625 L 12.625 -3.640625 C 13.738281 -3.640625 14.296875 -4.203125 14.296875 -5.328125 Z M 14.296875 -19.625 "/></g></g></g><g fill="#ffffff" fill-opacity="1"><g transform="translate(207.643619, 189.59179)"><g><path d="M 18.515625 -10.9375 L 14.578125 -3.921875 L 10.65625 -3.921875 L 6.734375 -10.9375 L 6.734375 0 L 1.6875 0 L 1.6875 -19.625 L 7.015625 -19.625 L 12.625 -9.25 L 18.234375 -19.625 L 23.5625 -19.625 L 23.5625 0 L 18.515625 0 Z M 18.515625 -10.9375 "/></g></g></g><g fill="#ffffff" fill-opacity="1"><g transform="translate(238.499379, 189.59179)"><g><path d="M 10.9375 0 L 0.84375 0 L 0.84375 -3.921875 L 3.359375 -3.921875 L 3.359375 -15.703125 L 0.84375 -15.703125 L 0.84375 -19.625 L 10.9375 -19.625 L 10.9375 -15.703125 L 8.40625 -15.703125 L 8.40625 -3.921875 L 10.9375 -3.921875 Z M 10.9375 0 "/></g></g></g><g fill="#ffffff" fill-opacity="1"><g transform="translate(255.891125, 189.59179)"><g><path d="M 18.796875 0 L 13.46875 0 L 6.734375 -11.78125 L 6.734375 0 L 1.6875 0 L 1.6875 -19.625 L 7.015625 -19.625 L 13.75 -7.859375 L 13.75 -19.625 L 18.796875 -19.625 Z M 18.796875 0 "/></g></g></g><g fill="#ffffff" fill-opacity="1"><g transform="translate(159.422085, 207.160404)"><g><path d="M 0.765625 -8.90625 L 5.84375 -8.90625 C 6.675781 -8.90625 7.285156 -8.710938 7.671875 -8.328125 C 8.066406 -7.953125 8.265625 -7.378906 8.265625 -6.609375 C 8.265625 -6.097656 8.15625 -5.679688 7.9375 -5.359375 C 7.71875 -5.046875 7.445312 -4.828125 7.125 -4.703125 C 7.8125 -4.515625 8.273438 -4.054688 8.515625 -3.328125 C 8.609375 -3.066406 8.65625 -2.765625 8.65625 -2.421875 C 8.65625 -1.585938 8.457031 -0.972656 8.0625 -0.578125 C 7.675781 -0.191406 7.066406 0 6.234375 0 L 0.765625 0 Z M 6.359375 -2.796875 C 6.359375 -3.304688 6.101562 -3.5625 5.59375 -3.5625 L 3.046875 -3.5625 L 3.046875 -1.78125 L 5.59375 -1.78125 C 6.101562 -1.78125 6.359375 -2.035156 6.359375 -2.546875 Z M 5.984375 -6.359375 C 5.984375 -6.867188 5.726562 -7.125 5.21875 -7.125 L 3.046875 -7.125 L 3.046875 -5.34375 L 5.21875 -5.34375 C 5.726562 -5.34375 5.984375 -5.597656 5.984375 -6.109375 Z M 5.984375 -6.359375 "/></g></g></g><g fill="#ffffff" fill-opacity="1"><g transform="translate(175.426022, 207.160404)"><g><path d="M 6.484375 -8.90625 L 8.78125 -8.90625 L 8.78125 -2.421875 C 8.78125 -1.523438 8.578125 -0.875 8.171875 -0.46875 C 7.765625 -0.0703125 7.117188 0.125 6.234375 0.125 L 3.3125 0.125 C 2.414062 0.125 1.765625 -0.0703125 1.359375 -0.46875 C 0.960938 -0.875 0.765625 -1.523438 0.765625 -2.421875 L 0.765625 -8.90625 L 3.046875 -8.90625 L 3.046875 -2.421875 C 3.046875 -1.910156 3.300781 -1.65625 3.8125 -1.65625 L 5.71875 -1.65625 C 6.226562 -1.65625 6.484375 -1.910156 6.484375 -2.421875 Z M 6.484375 -8.90625 "/></g></g></g><g fill="#ffffff" fill-opacity="1"><g transform="translate(191.938755, 207.160404)"><g><path d="M 0.5 -1.84375 C 2.820312 -1.71875 4.394531 -1.65625 5.21875 -1.65625 C 5.40625 -1.65625 5.554688 -1.710938 5.671875 -1.828125 C 5.785156 -1.941406 5.84375 -2.097656 5.84375 -2.296875 L 5.84375 -3.4375 L 2.921875 -3.4375 C 2.035156 -3.4375 1.390625 -3.632812 0.984375 -4.03125 C 0.578125 -4.4375 0.375 -5.085938 0.375 -5.984375 L 0.375 -6.359375 C 0.375 -7.242188 0.578125 -7.890625 0.984375 -8.296875 C 1.390625 -8.703125 2.035156 -8.90625 2.921875 -8.90625 L 7.390625 -8.90625 L 7.390625 -7.125 L 3.4375 -7.125 C 2.925781 -7.125 2.671875 -6.867188 2.671875 -6.359375 L 2.671875 -6.109375 C 2.671875 -5.597656 2.925781 -5.34375 3.4375 -5.34375 L 5.71875 -5.34375 C 6.550781 -5.34375 7.160156 -5.144531 7.546875 -4.75 C 7.941406 -4.363281 8.140625 -3.753906 8.140625 -2.921875 L 8.140625 -2.296875 C 8.140625 -1.460938 7.941406 -0.847656 7.546875 -0.453125 C 7.160156 -0.0664062 6.550781 0.125 5.71875 0.125 C 5.289062 0.125 4.832031 0.117188 4.34375 0.109375 L 3.171875 0.046875 C 2.304688 0.00390625 1.414062 -0.0507812 0.5 -0.125 Z M 0.5 -1.84375 "/></g></g></g><g fill="#ffffff" fill-opacity="1"><g transform="translate(207.433895, 207.160404)"><g><path d="M 4.953125 0 L 0.375 0 L 0.375 -1.78125 L 1.53125 -1.78125 L 1.53125 -7.125 L 0.375 -7.125 L 0.375 -8.90625 L 4.953125 -8.90625 L 4.953125 -7.125 L 3.8125 -7.125 L 3.8125 -1.78125 L 4.953125 -1.78125 Z M 4.953125 0 "/></g></g></g><g fill="#ffffff" fill-opacity="1"><g transform="translate(219.749075, 207.160404)"><g><path d="M 8.515625 0 L 6.109375 0 L 3.046875 -5.34375 L 3.046875 0 L 0.765625 0 L 0.765625 -8.90625 L 3.171875 -8.90625 L 6.234375 -3.5625 L 6.234375 -8.90625 L 8.515625 -8.90625 Z M 8.515625 0 "/></g></g></g><g fill="#ffffff" fill-opacity="1"><g transform="translate(236.007404, 207.160404)"><g><path d="M 7.828125 0 L 0.765625 0 L 0.765625 -8.90625 L 7.828125 -8.90625 L 7.828125 -7.125 L 3.046875 -7.125 L 3.046875 -5.40625 L 6.796875 -5.40625 L 6.796875 -3.625 L 3.046875 -3.625 L 3.046875 -1.78125 L 7.828125 -1.78125 Z M 7.828125 0 "/></g></g></g><g fill="#ffffff" fill-opacity="1"><g transform="translate(251.057348, 207.160404)"><g><path d="M 0.5 -1.84375 C 2.820312 -1.71875 4.394531 -1.65625 5.21875 -1.65625 C 5.40625 -1.65625 5.554688 -1.710938 5.671875 -1.828125 C 5.785156 -1.941406 5.84375 -2.097656 5.84375 -2.296875 L 5.84375 -3.4375 L 2.921875 -3.4375 C 2.035156 -3.4375 1.390625 -3.632812 0.984375 -4.03125 C 0.578125 -4.4375 0.375 -5.085938 0.375 -5.984375 L 0.375 -6.359375 C 0.375 -7.242188 0.578125 -7.890625 0.984375 -8.296875 C 1.390625 -8.703125 2.035156 -8.90625 2.921875 -8.90625 L 7.390625 -8.90625 L 7.390625 -7.125 L 3.4375 -7.125 C 2.925781 -7.125 2.671875 -6.867188 2.671875 -6.359375 L 2.671875 -6.109375 C 2.671875 -5.597656 2.925781 -5.34375 3.4375 -5.34375 L 5.71875 -5.34375 C 6.550781 -5.34375 7.160156 -5.144531 7.546875 -4.75 C 7.941406 -4.363281 8.140625 -3.753906 8.140625 -2.921875 L 8.140625 -2.296875 C 8.140625 -1.460938 7.941406 -0.847656 7.546875 -0.453125 C 7.160156 -0.0664062 6.550781 0.125 5.71875 0.125 C 5.289062 0.125 4.832031 0.117188 4.34375 0.109375 L 3.171875 0.046875 C 2.304688 0.00390625 1.414062 -0.0507812 0.5 -0.125 Z M 0.5 -1.84375 "/></g></g></g><g fill="#ffffff" fill-opacity="1"><g transform="translate(266.552488, 207.160404)"><g><path d="M 0.5 -1.84375 C 2.820312 -1.71875 4.394531 -1.65625 5.21875 -1.65625 C 5.40625 -1.65625 5.554688 -1.710938 5.671875 -1.828125 C 5.785156 -1.941406 5.84375 -2.097656 5.84375 -2.296875 L 5.84375 -3.4375 L 2.921875 -3.4375 C 2.035156 -3.4375 1.390625 -3.632812 0.984375 -4.03125 C 0.578125 -4.4375 0.375 -5.085938 0.375 -5.984375 L 0.375 -6.359375 C 0.375 -7.242188 0.578125 -7.890625 0.984375 -8.296875 C 1.390625 -8.703125 2.035156 -8.90625 2.921875 -8.90625 L 7.390625 -8.90625 L 7.390625 -7.125 L 3.4375 -7.125 C 2.925781 -7.125 2.671875 -6.867188 2.671875 -6.359375 L 2.671875 -6.109375 C 2.671875 -5.597656 2.925781 -5.34375 3.4375 -5.34375 L 5.71875 -5.34375 C 6.550781 -5.34375 7.160156 -5.144531 7.546875 -4.75 C 7.941406 -4.363281 8.140625 -3.753906 8.140625 -2.921875 L 8.140625 -2.296875 C 8.140625 -1.460938 7.941406 -0.847656 7.546875 -0.453125 C 7.160156 -0.0664062 6.550781 0.125 5.71875 0.125 C 5.289062 0.125 4.832031 0.117188 4.34375 0.109375 L 3.171875 0.046875 C 2.304688 0.00390625 1.414062 -0.0507812 0.5 -0.125 Z M 0.5 -1.84375 "/></g></g></g><path stroke-linecap="round" transform="matrix(0, 0.75, -0.75, 0, 131.314947, 159.251942)" fill="none" stroke-linejoin="miter" d="M 1.497411 1.498055 L 73.830749 1.498055 " stroke="#0091ff" stroke-width="3" stroke-opacity="1" stroke-miterlimit="4"/></svg>